<?xml version="1.0" encoding="utf-8"?>
<!-- Generated by IcoMoon.io -->
<!DOCTYPE svg PUBLIC "-//W3C//DTD SVG 1.1//EN" "http://www.w3.org/Graphics/SVG/1.1/DTD/svg11.dtd">
<svg version="1.1" xmlns="http://www.w3.org/2000/svg" xmlns:xlink="http://www.w3.org/1999/xlink" width="24" height="24" viewBox="0 0 24 24">
<path fill="#222222" d="M1.595 0.891c0.958-0.961 3.856-1.121 3.877-0.613s2.609 6.143 2.632 6.652c0.022 0.508-1.706 2.24-2.211 2.747-0.501 0.502 3.381 4.9 3.454 4.983 0.082 0.074 4.47 3.965 4.971 3.463 0.505-0.507 2.234-2.239 2.74-2.216 0.507 0.022 6.13 2.615 6.637 2.639 0.507 0.022 0.347 2.925-0.611 3.887-0.82 0.821-5.064 3.803-12.444-1.522-0.809-0.466-2.091-1.537-4.035-3.485-0.001-0.001-0.002-0.002-0.004-0.003-0.002-0.002-0.003-0.003-0.005-0.005s-0.003-0.003-0.005-0.005c-0.001-0.002-0.002-0.003-0.003-0.004-1.942-1.948-3.011-3.234-3.476-4.045-5.312-7.398-2.337-11.653-1.518-12.474z"></path>
</svg>
