<?xml version="1.0" encoding="UTF-8" standalone="no"?>
<svg width="539px" height="108px" viewBox="0 0 539 108" version="1.1" xmlns="http://www.w3.org/2000/svg" xmlns:xlink="http://www.w3.org/1999/xlink" xmlns:sketch="http://www.bohemiancoding.com/sketch/ns">
    <!-- Generator: Sketch 3.3.1 (12002) - http://www.bohemiancoding.com/sketch -->
    <title>Logo_horizontal_light</title>
    <desc>Created with Sketch.</desc>
    <defs>
        <path id="path-1" d="M0,0.964 L538.583,0.964 L538.583,107.94 L0,107.94"></path>
    </defs>
    <g id="Page-1" stroke="none" stroke-width="1" fill="none" fill-rule="evenodd" sketch:type="MSPage">
        <g id="Logo_horizontal_light" sketch:type="MSLayerGroup">
            <path d="M267.204,56.483 C274.968,56.483 279.198,52.665 279.198,46.544 C279.198,40.06 274.55,36.604 267.204,36.604 L258.597,36.604 L258.597,56.483 L267.204,56.483 L267.204,56.483 Z M267.204,33.275 C276.972,33.275 282.782,38.239 282.782,46.544 C282.782,54.789 276.972,59.814 267.204,59.814 L258.597,59.814 L258.597,75.692 L255.143,75.692 L255.143,33.275 L267.204,33.275 L267.204,33.275 Z" id="Fill-1" fill="#F3F2F1" sketch:type="MSShapeGroup"></path>
            <path d="M300.354,56.244 C308.049,56.244 312.172,52.181 312.172,46.365 C312.172,40.12 307.625,36.604 300.354,36.604 L291.563,36.604 L291.563,56.244 L300.354,56.244 L300.354,56.244 Z M313.141,75.692 L303.021,59.155 C302.113,59.271 301.137,59.33 300.169,59.33 L291.563,59.33 L291.563,75.692 L288.11,75.692 L288.11,33.275 L300.169,33.275 C309.875,33.275 315.739,38.302 315.739,46.365 C315.739,52.543 312.353,56.788 306.533,58.479 L317.085,75.692 L313.141,75.692 L313.141,75.692 Z" id="Fill-2" fill="#F3F2F1" sketch:type="MSShapeGroup"></path>
            <path d="M342.177,73.15 C352.477,73.15 360.651,65.511 360.651,54.483 C360.651,43.332 352.477,35.818 342.177,35.818 C331.814,35.818 323.747,43.332 323.747,54.483 C323.747,65.511 331.814,73.15 342.177,73.15 L342.177,73.15 Z M342.177,32.423 C354.354,32.423 364.235,41.697 364.235,54.483 C364.235,67.271 354.354,76.546 342.177,76.546 C329.998,76.546 320.172,67.271 320.172,54.483 C320.172,41.697 329.998,32.423 342.177,32.423 L342.177,32.423 Z" id="Fill-3" fill="#F3F2F1" sketch:type="MSShapeGroup"></path>
            <path d="M381.989,56.483 C389.746,56.483 393.982,52.665 393.982,46.544 C393.982,40.06 389.321,36.604 381.989,36.604 L373.377,36.604 L373.377,56.483 L381.989,56.483 L381.989,56.483 Z M381.989,33.275 C391.75,33.275 397.56,38.239 397.56,46.544 C397.56,54.789 391.75,59.814 381.989,59.814 L373.377,59.814 L373.377,75.692 L369.93,75.692 L369.93,33.275 L381.989,33.275 L381.989,33.275 Z" id="Fill-4" fill="#F3F2F1" sketch:type="MSShapeGroup"></path>
            <path d="M430.831,72.367 L430.831,75.692 L402.891,75.692 L402.891,33.275 L430.463,33.275 L430.463,36.604 L406.347,36.604 L406.347,51.392 L425.804,51.392 L425.804,54.607 L406.347,54.607 L406.347,72.367 L430.831,72.367" id="Fill-5" fill="#F3F2F1" sketch:type="MSShapeGroup"></path>
            <path d="M449.013,56.244 C456.712,56.244 460.828,52.181 460.828,46.365 C460.828,40.12 456.285,36.604 449.013,36.604 L440.221,36.604 L440.221,56.244 L449.013,56.244 L449.013,56.244 Z M461.8,75.692 L451.681,59.155 C450.772,59.271 449.797,59.33 448.829,59.33 L440.221,59.33 L440.221,75.692 L436.769,75.692 L436.769,33.275 L448.829,33.275 C458.526,33.275 464.404,38.302 464.404,46.365 C464.404,52.543 461.014,56.788 455.193,58.479 L465.744,75.692 L461.8,75.692 L461.8,75.692 Z" id="Fill-6" fill="#F3F2F1" sketch:type="MSShapeGroup"></path>
            <path d="M499.313,33.275 L499.313,36.604 L484.766,36.604 L484.766,75.692 L481.245,75.692 L481.245,36.604 L466.767,36.604 L466.767,33.275 L499.313,33.275" id="Fill-7" fill="#F3F2F1" sketch:type="MSShapeGroup"></path>
            <path d="M538.583,33.275 L522.097,54.299 L522.097,75.692 L518.644,75.692 L518.644,54.299 L502.162,33.275 L506.219,33.275 L517.665,47.822 C518.701,49.149 520.337,51.274 520.395,51.274 L520.453,51.274 C520.511,51.274 522.097,49.149 523.13,47.822 L534.518,33.275 L538.583,33.275" id="Fill-8" fill="#F3F2F1" sketch:type="MSShapeGroup"></path>
            <path d="M126.427,67.822 L126.427,75.692 L97.031,75.692 L97.031,33.275 L105.458,33.275 L105.458,67.822 L126.427,67.822" id="Fill-9" fill="#F3F2F1" sketch:type="MSShapeGroup"></path>
            <path d="M149.278,68.237 C157.1,68.237 162.548,62.608 162.548,54.483 C162.548,46.3 157.1,40.727 149.278,40.727 C141.52,40.727 136.068,46.3 136.068,54.483 C136.068,62.608 141.52,68.237 149.278,68.237 L149.278,68.237 Z M149.278,32.423 C161.459,32.423 171.334,41.697 171.334,54.483 C171.334,67.271 161.459,76.546 149.278,76.546 C137.098,76.546 127.277,67.271 127.277,54.483 C127.277,41.697 137.098,32.423 149.278,32.423 L149.278,32.423 Z" id="Fill-10" fill="#F3F2F1" sketch:type="MSShapeGroup"></path>
            <path d="M198.911,46.18 C197.947,41.939 194.245,39.759 190.492,39.759 C186.604,39.759 184.126,41.634 184.126,44.178 C184.126,47.574 188.913,48.785 194.245,50.607 C200.418,52.73 207.521,55.999 207.521,63.577 C207.521,71.149 200.971,76.546 191.274,76.546 C182.37,76.546 176.24,71.516 173.938,63.817 L182.058,61.642 C182.974,65.452 186.36,69.03 191.631,69.03 C196.191,69.03 198.544,66.787 198.544,63.943 C198.544,59.639 192.791,58.604 186.787,56.483 C181.752,54.667 175.453,52.056 175.453,44.666 C175.453,38.062 182,32.423 190.963,32.423 C198.911,32.423 205.211,37.274 207.027,43.937 L198.911,46.18" id="Fill-11" fill="#F3F2F1" sketch:type="MSShapeGroup"></path>
            <path d="M243.512,33.275 L243.512,41.151 L230.181,41.151 L230.181,75.692 L221.756,75.692 L221.756,41.151 L208.542,41.151 L208.542,33.275 L243.512,33.275" id="Fill-12" fill="#F3F2F1" sketch:type="MSShapeGroup"></path>
            <g id="Group-16">
                <mask id="mask-2" sketch:name="Clip 14" fill="white">
                    <use xlink:href="#path-1"></use>
                </mask>
                <g id="Clip-14"></g>
                <path d="M64.32,12.67 L64.32,12.646 L64.238,12.646 C64.267,12.652 64.292,12.66 64.32,12.67" id="Fill-13" fill="#F3F2F1" sketch:type="MSShapeGroup" mask="url(#mask-2)"></path>
                <path d="M58.592,61.162 L47.032,61.162 L47.032,84.576 L23.435,84.576 L23.435,0.964 L0,0.964 L0,108 L70.539,108 L70.539,59.555 C66.933,60.624 62.904,61.162 58.592,61.162" id="Fill-15" fill="#F3F2F1" sketch:type="MSShapeGroup" mask="url(#mask-2)"></path>
            </g>
            <path d="M47.032,21.929 L47.032,40.282 L58.189,40.282 C65.042,40.282 69.208,36.71 69.208,31.253 L69.208,31.059 C69.208,25.103 65.042,21.929 58.092,21.929 L47.032,21.929" id="Fill-17" fill="#F3F2F1" sketch:type="MSShapeGroup"></path>
        </g>
    </g>
</svg>